<?xml version="1.0" encoding="UTF-8"?>
<svg xmlns="http://www.w3.org/2000/svg" viewBox="0 0 860 980" font-family="Arial,Helvetica,sans-serif">
<defs>
<marker id="ar" markerWidth="8" markerHeight="6" refX="7" refY="3" orient="auto"><polygon points="0 0,8 3,0 6" fill="#475569"/></marker>
<marker id="ar2" markerWidth="8" markerHeight="6" refX="7" refY="3" orient="auto"><polygon points="0 0,8 3,0 6" fill="#16A34A"/></marker>
<marker id="ar3" markerWidth="8" markerHeight="6" refX="7" refY="3" orient="auto"><polygon points="0 0,8 3,0 6" fill="#7C3AED"/></marker>
<marker id="ar4" markerWidth="8" markerHeight="6" refX="7" refY="3" orient="auto"><polygon points="0 0,8 3,0 6" fill="#F43F5E"/></marker>
<marker id="ar5" markerWidth="8" markerHeight="6" refX="7" refY="3" orient="auto"><polygon points="0 0,8 3,0 6" fill="#F97316"/></marker>
</defs>
<rect width="860" height="980" fill="#F8FAFC"/>
<rect x="0" y="0" width="860" height="48" rx="0" fill="#0F172A" stroke="#0F172A" stroke-width="1.5" />
<text x="430" y="22" text-anchor="middle" font-size="14" fill="white" font-weight="bold">HARDWARE ARCHITECTURE -- Platform A: ESP32-S3 Supermini</text>
<text x="430" y="39" text-anchor="middle" font-size="9" fill="#94A3B8" font-weight="normal">So do khoi -- Linh kien hien co va vi tri trong he thong</text>
<rect x="12" y="56" width="836" height="130" rx="8" fill="#F1F5F9" stroke="#94A3B8" stroke-width="1.5" stroke-dasharray="6,3"/>
<text x="30" y="71" text-anchor="start" font-size="8" fill="#94A3B8" font-weight="normal">NGOAI DRONE -- Nguon lenh dieu khien</text>
<rect x="30" y="80" width="340" height="88" rx="7" fill="#EFF6FF" stroke="#3B82F6" stroke-width="1.8" />
<text x="200" y="102" text-anchor="middle" font-size="12" fill="#3B82F6" font-weight="bold">ELRS Transmitter</text>
<text x="200" y="120" text-anchor="middle" font-size="10" fill="#475569" font-weight="normal">(Tay cam phi cong)</text>
<text x="200" y="137" text-anchor="middle" font-size="9" fill="#64748B" font-weight="normal">e.g. RadioMaster TX16S,</text>
<text x="200" y="151" text-anchor="middle" font-size="9" fill="#64748B" font-weight="normal">TBS Tango 2 Pro (qua ELRS module)</text>
<rect x="490" y="80" width="340" height="88" rx="7" fill="#F0F9FF" stroke="#0EA5E9" stroke-width="1.5" stroke-dasharray="5,3"/>
<text x="660" y="102" text-anchor="middle" font-size="12" fill="#0EA5E9" font-weight="bold">Android Phone</text>
<text x="660" y="120" text-anchor="middle" font-size="10" fill="#0369A1" font-weight="normal">(Kich ban A -- Test TX)</text>
<text x="660" y="137" text-anchor="middle" font-size="9" fill="#64748B" font-weight="normal">Bluetooth Serial Monitor (CH Play)</text>
<text x="660" y="151" text-anchor="middle" font-size="9" fill="#64748B" font-weight="normal">Gui lenh RC va nhan telemetry</text>
<rect x="12" y="198" width="836" height="770" rx="10" fill="#EFF6FF" stroke="#3B82F6" stroke-width="2" />
<text x="30" y="214" text-anchor="start" font-size="8" fill="#3B82F6" font-weight="bold">TREN DRONE</text>
<line x1="200" y1="168" x2="290" y2="258" stroke="#16A34A" stroke-width="2"  marker-end="url(#ar2)"/>
<rect x="200" y="199" width="111" height="16" rx="4" fill="#16A34A"/>
<text x="255" y="211" text-anchor="middle" font-size="8" fill="white" font-weight="bold">ELRS 2.4 GHz (OTA)</text>
<path d="M 660 168 L 660 348 L 725 348" stroke="#F97316" stroke-width="1.6" stroke-dasharray="5,3" fill="none" marker-end="url(#ar5)"/>
<rect x="615" y="334" width="150" height="16" rx="4" fill="#F97316"/>
<text x="690" y="346" text-anchor="middle" font-size="8" fill="white" font-weight="bold">Bluetooth SPP (Test only)</text>
<rect x="100" y="226" width="380" height="70" rx="7" fill="#DCFCE7" stroke="#16A34A" stroke-width="2" />
<text x="290" y="248" text-anchor="middle" font-size="13" fill="#16A34A" font-weight="bold">WeAct ELRS Mini RX V1</text>
<text x="290" y="266" text-anchor="middle" font-size="9" fill="#166534" font-weight="normal">Mach thu song ELRS -- Chip: ESP32C3FH4 + SX1281</text>
<text x="290" y="282" text-anchor="middle" font-size="9" fill="#15803D" font-weight="normal">Output: CH1 - CH2 - CH3 - CH4 - CH5 - CH6</text>
<line x1="290" y1="296" x2="290" y2="348" stroke="#475569" stroke-width="2"  marker-end="url(#ar)"/>
<rect x="237" y="316" width="105" height="16" rx="4" fill="#334155"/>
<text x="290" y="328" text-anchor="middle" font-size="8" fill="white" font-weight="bold">6 x PWM (CH1-CH6)</text>
<rect x="80" y="348" width="420" height="170" rx="9" fill="#EDE9FE" stroke="#7C3AED" stroke-width="2.5" />
<text x="290" y="372" text-anchor="middle" font-size="15" fill="#7C3AED" font-weight="bold">ESP32-S3 Supermini</text>
<text x="290" y="392" text-anchor="middle" font-size="11" fill="#5B21B6" font-weight="bold">FLIGHT CONTROLLER</text>
<text x="290" y="418" text-anchor="middle" font-size="10" fill="#374151" font-weight="normal">- Xu ly tin hieu RC (6 kenh)</text>
<text x="290" y="438" text-anchor="middle" font-size="10" fill="#374151" font-weight="normal">- Chay thuat toan PID (can bang)</text>
<text x="290" y="458" text-anchor="middle" font-size="10" fill="#374151" font-weight="normal">- Xuat xung dieu khien ESC (4 kenh)</text>
<text x="290" y="478" text-anchor="middle" font-size="10" fill="#374151" font-weight="normal">- Truyen nhan du lieu telemetry</text>
<text x="290" y="500" text-anchor="middle" font-size="8" fill="#7C3AED" font-weight="normal">GD2B test: nhan du lieu goc nghieng gia lap tu ESP32 HITL</text>
<rect x="14" y="393" width="150" height="80" rx="7" fill="#FFF1F2" stroke="#F43F5E" stroke-width="1.8" />
<text x="89" y="413" text-anchor="middle" font-size="13" fill="#F43F5E" font-weight="bold">MPU6050</text>
<text x="89" y="431" text-anchor="middle" font-size="11" fill="#BE123C" font-weight="bold">IMU</text>
<text x="89" y="449" text-anchor="middle" font-size="9" fill="#9F1239" font-weight="normal">Gyro + Accelerometer</text>
<text x="89" y="463" text-anchor="middle" font-size="8" fill="#BE123C" font-weight="normal">(GD3+: that / GD2B: HITL)</text>
<line x1="164" y1="433" x2="80" y2="413" stroke="#F43F5E" stroke-width="1.8"  marker-end="url(#ar4)"/>
<rect x="109" y="409" width="27" height="16" rx="4" fill="#F43F5E"/>
<text x="122" y="421" text-anchor="middle" font-size="8" fill="white" font-weight="bold">I2C</text>
<rect x="650" y="388" width="155" height="80" rx="7" fill="#FFF7ED" stroke="#F97316" stroke-width="1.8" />
<text x="727" y="408" text-anchor="middle" font-size="12" fill="#F97316" font-weight="bold">JDY-33 / HC-05</text>
<text x="727" y="426" text-anchor="middle" font-size="10" fill="#9A3412" font-weight="normal">Bluetooth Module</text>
<text x="727" y="444" text-anchor="middle" font-size="9" fill="#C2410C" font-weight="normal">SPP (Serial Port Profile)</text>
<text x="727" y="459" text-anchor="middle" font-size="8" fill="#EA580C" font-weight="normal">TX/RX telemetry + RC cmd</text>
<line x1="502" y1="425" x2="648" y2="420" stroke="#F97316" stroke-width="1.8" marker-end="url(#ar5)"/>
<line x1="648" y1="436" x2="502" y2="441" stroke="#F97316" stroke-width="1.8" marker-end="url(#ar5)"/>
<rect x="559" y="406" width="32" height="16" rx="4" fill="#F97316"/>
<text x="575" y="418" text-anchor="middle" font-size="8" fill="white" font-weight="bold">UART</text>
<line x1="290" y1="518" x2="290" y2="570" stroke="#475569" stroke-width="2"  marker-end="url(#ar)"/>
<rect x="265" y="538" width="49" height="16" rx="4" fill="#334155"/>
<text x="290" y="550" text-anchor="middle" font-size="8" fill="white" font-weight="bold">4 x PWM</text>
<rect x="120" y="570" width="340" height="64" rx="7" fill="#1E293B" stroke="#334155" stroke-width="1.5" />
<text x="290" y="592" text-anchor="middle" font-size="14" fill="white" font-weight="bold">4 x ESC</text>
<text x="290" y="610" text-anchor="middle" font-size="10" fill="#94A3B8" font-weight="normal">Electronic Speed Controller</text>
<text x="290" y="625" text-anchor="middle" font-size="9" fill="#64748B" font-weight="normal">(BLHeli_S / AM32)</text>
<line x1="290" y1="634" x2="290" y2="678" stroke="#475569" stroke-width="2"  marker-end="url(#ar)"/>
<rect x="257" y="650" width="66" height="16" rx="4" fill="#334155"/>
<text x="290" y="662" text-anchor="middle" font-size="8" fill="white" font-weight="bold">3-phase AC</text>
<rect x="120" y="678" width="340" height="64" rx="7" fill="#0F172A" stroke="#1E293B" stroke-width="1.5" />
<text x="290" y="700" text-anchor="middle" font-size="14" fill="white" font-weight="bold">4 x Brushless Motor</text>
<text x="290" y="718" text-anchor="middle" font-size="10" fill="#94A3B8" font-weight="normal">2x CW (kim dong ho) + 2x CCW (nguoc kim)</text>
<text x="290" y="733" text-anchor="middle" font-size="9" fill="#64748B" font-weight="normal">Tao luc nang cho drone</text>
<rect x="14" y="762" width="832" height="58" rx="7" fill="#FFFBEB" stroke="#F59E0B" stroke-width="1.2" />
<text x="430" y="776" text-anchor="middle" font-size="9" fill="#92400E" font-weight="bold">Ghi chu linh kien:</text>
<text x="430" y="792" text-anchor="middle" font-size="8.5" fill="#78350F" font-weight="normal">WeAct ELRS Mini RX: Nhan song ELRS, xuat 6 PWM -- ESP32-S3: Xu ly logic bay -- MPU6050: Do goc nghieng</text>
<text x="430" y="808" text-anchor="middle" font-size="8.5" fill="#78350F" font-weight="normal">JDY-33/HC-05: Ket noi Bluetooth voi dien thoai -- 4x ESC: Bien doi xung PWM thanh dong dien cho Motor</text>
</svg>