<svg xmlns="http://www.w3.org/2000/svg" viewBox="0 0 1100 720" width="1100" height="720" font-family="'Courier New', monospace">
  <defs>
    <linearGradient id="bgGrad" x1="0%" y1="0%" x2="100%" y2="100%">
      <stop offset="0%" style="stop-color:#0d1117"/>
      <stop offset="100%" style="stop-color:#161b22"/>
    </linearGradient>
    <linearGradient id="accelGrad" x1="0%" y1="0%" x2="0%" y2="100%">
      <stop offset="0%" style="stop-color:#1a3a2a"/>
      <stop offset="100%" style="stop-color:#0f2318"/>
    </linearGradient>
    <linearGradient id="gyroGrad" x1="0%" y1="0%" x2="0%" y2="100%">
      <stop offset="0%" style="stop-color:#1a2a3a"/>
      <stop offset="100%" style="stop-color:#0f1823"/>
    </linearGradient>
    <linearGradient id="filterGrad" x1="0%" y1="0%" x2="0%" y2="100%">
      <stop offset="0%" style="stop-color:#2a1a3a"/>
      <stop offset="100%" style="stop-color:#1a0f28"/>
    </linearGradient>
    <linearGradient id="outputGrad" x1="0%" y1="0%" x2="0%" y2="100%">
      <stop offset="0%" style="stop-color:#3a2a0a"/>
      <stop offset="100%" style="stop-color:#281e06"/>
    </linearGradient>
    <filter id="glow">
      <feGaussianBlur stdDeviation="3" result="coloredBlur"/>
      <feMerge><feMergeNode in="coloredBlur"/><feMergeNode in="SourceGraphic"/></feMerge>
    </filter>
    <filter id="softglow">
      <feGaussianBlur stdDeviation="1.5" result="coloredBlur"/>
      <feMerge><feMergeNode in="coloredBlur"/><feMergeNode in="SourceGraphic"/></feMerge>
    </filter>
    <marker id="arrowGreen" markerWidth="8" markerHeight="8" refX="6" refY="3" orient="auto">
      <path d="M0,0 L0,6 L8,3 z" fill="#39d353"/>
    </marker>
    <marker id="arrowBlue" markerWidth="8" markerHeight="8" refX="6" refY="3" orient="auto">
      <path d="M0,0 L0,6 L8,3 z" fill="#58a6ff"/>
    </marker>
    <marker id="arrowPurple" markerWidth="8" markerHeight="8" refX="6" refY="3" orient="auto">
      <path d="M0,0 L0,6 L8,3 z" fill="#bc8cff"/>
    </marker>
    <marker id="arrowYellow" markerWidth="8" markerHeight="8" refX="6" refY="3" orient="auto">
      <path d="M0,0 L0,6 L8,3 z" fill="#e3b341"/>
    </marker>
    <marker id="arrowWhite" markerWidth="8" markerHeight="8" refX="6" refY="3" orient="auto">
      <path d="M0,0 L0,6 L8,3 z" fill="#8b949e"/>
    </marker>
  </defs>

  <!-- Background -->
  <rect width="1100" height="720" fill="url(#bgGrad)"/>

  <!-- Grid lines subtle -->
  <g stroke="#1c2128" stroke-width="1" opacity="0.5">
    <line x1="0" y1="80" x2="1100" y2="80"/>
    <line x1="0" y1="640" x2="1100" y2="640"/>
  </g>

  <!-- Title -->
  <text x="550" y="38" text-anchor="middle" font-size="18" font-weight="bold" fill="#e6edf3" letter-spacing="3">MPU6050 — IMU SIGNAL PROCESSING PIPELINE</text>
  <text x="550" y="58" text-anchor="middle" font-size="11" fill="#8b949e" letter-spacing="2">DLPF + CALIBRATION + COMPLEMENTARY FILTER</text>
  <line x1="80" y1="68" x2="1020" y2="68" stroke="#30363d" stroke-width="1"/>

  <!-- ═══════════════════════════════════════════════ -->
  <!-- BLOCK 0: MPU6050 Sensor -->
  <!-- ═══════════════════════════════════════════════ -->
  <rect x="20" y="200" width="100" height="280" rx="6" fill="#1c2128" stroke="#30363d" stroke-width="1.5"/>
  <text x="70" y="225" text-anchor="middle" font-size="9" fill="#8b949e" letter-spacing="1">SENSOR</text>
  <text x="70" y="242" text-anchor="middle" font-size="13" font-weight="bold" fill="#39d353" filter="url(#softglow)">MPU</text>
  <text x="70" y="258" text-anchor="middle" font-size="13" font-weight="bold" fill="#39d353" filter="url(#softglow)">6050</text>
  <line x1="30" y1="268" x2="110" y2="268" stroke="#30363d" stroke-width="1"/>
  <!-- Axes labels -->
  <text x="70" y="288" text-anchor="middle" font-size="9" fill="#58a6ff">ACCEL</text>
  <text x="70" y="302" text-anchor="middle" font-size="8" fill="#6e7681">X · Y · Z</text>
  <line x1="38" y1="312" x2="102" y2="312" stroke="#21262d" stroke-width="1" stroke-dasharray="3,2"/>
  <text x="70" y="330" text-anchor="middle" font-size="9" fill="#bc8cff">GYRO</text>
  <text x="70" y="344" text-anchor="middle" font-size="8" fill="#6e7681">X · Y · Z</text>
  <line x1="38" y1="354" x2="102" y2="354" stroke="#21262d" stroke-width="1" stroke-dasharray="3,2"/>
  <text x="70" y="372" text-anchor="middle" font-size="9" fill="#e3b341">TEMP</text>
  <text x="70" y="386" text-anchor="middle" font-size="8" fill="#6e7681">raw</text>
  <!-- Config badge -->
  <rect x="28" y="400" width="84" height="44" rx="3" fill="#0d1117" stroke="#21262d" stroke-width="1"/>
  <text x="70" y="415" text-anchor="middle" font-size="7" fill="#8b949e">DLPF 0x03</text>
  <text x="70" y="427" text-anchor="middle" font-size="7" fill="#8b949e">±8g / ±500dps</text>
  <text x="70" y="439" text-anchor="middle" font-size="7" fill="#8b949e">400kHz I2C</text>

  <!-- ═══════════════════════════════════════════════ -->
  <!-- Arrow: Sensor → I2C Read -->
  <!-- ═══════════════════════════════════════════════ -->
  <line x1="120" y1="340" x2="148" y2="340" stroke="#39d353" stroke-width="1.5" marker-end="url(#arrowGreen)"/>
  <text x="134" y="333" text-anchor="middle" font-size="7" fill="#39d353">I2C</text>

  <!-- ═══════════════════════════════════════════════ -->
  <!-- BLOCK 1: I2C Burst Read -->
  <!-- ═══════════════════════════════════════════════ -->
  <rect x="150" y="250" width="130" height="180" rx="6" fill="#161b22" stroke="#39d353" stroke-width="1.5"/>
  <rect x="150" y="250" width="130" height="26" rx="6" fill="#1a3a2a"/>
  <rect x="150" y="270" width="130" height="6" rx="0" fill="#1a3a2a"/>
  <text x="215" y="268" text-anchor="middle" font-size="10" font-weight="bold" fill="#39d353">① I2C BURST READ</text>
  <text x="215" y="295" text-anchor="middle" font-size="8" fill="#8b949e">reg 0x3B → 14 bytes</text>
  <line x1="162" y1="305" x2="268" y2="305" stroke="#21262d" stroke-width="1"/>

  <!-- Byte map -->
  <text x="165" y="320" font-size="8" fill="#58a6ff">AX_H AX_L</text>
  <text x="165" y="333" font-size="8" fill="#58a6ff">AY_H AY_L</text>
  <text x="165" y="346" font-size="8" fill="#58a6ff">AZ_H AZ_L</text>
  <text x="165" y="359" font-size="8" fill="#e3b341">TMP_H TMP_L</text>
  <text x="165" y="372" font-size="8" fill="#bc8cff">GX_H GX_L</text>
  <text x="165" y="385" font-size="8" fill="#bc8cff">GY_H GY_L</text>
  <text x="165" y="398" font-size="8" fill="#bc8cff">GZ_H GZ_L</text>

  <!-- cast label -->
  <text x="215" y="418" text-anchor="middle" font-size="7" fill="#6e7681">cast → int16_t (signed)</text>

  <!-- BPS counter badge -->
  <rect x="158" y="422" width="114" height="14" rx="2" fill="#0d1117" stroke="#21262d" stroke-width="1"/>
  <text x="215" y="432" text-anchor="middle" font-size="7" fill="#6e7681">bytes_per_second counter</text>

  <!-- ═══════════════════════════════════════════════ -->
  <!-- Arrow: I2C → Calibrate -->
  <!-- ═══════════════════════════════════════════════ -->
  <line x1="280" y1="340" x2="308" y2="340" stroke="#39d353" stroke-width="1.5" marker-end="url(#arrowGreen)"/>

  <!-- ═══════════════════════════════════════════════ -->
  <!-- BLOCK 2: Calibration -->
  <!-- ═══════════════════════════════════════════════ -->
  <rect x="310" y="230" width="140" height="220" rx="6" fill="#161b22" stroke="#e3b341" stroke-width="1.5"/>
  <rect x="310" y="230" width="140" height="26" rx="6" fill="#2a200a"/>
  <rect x="310" y="250" width="140" height="6" rx="0" fill="#2a200a"/>
  <text x="380" y="248" text-anchor="middle" font-size="10" font-weight="bold" fill="#e3b341">② CALIBRATION</text>

  <text x="380" y="272" text-anchor="middle" font-size="8" fill="#8b949e">@ startup · device flat/still</text>
  <line x1="322" y1="280" x2="438" y2="280" stroke="#21262d" stroke-width="1"/>

  <text x="322" y="296" font-size="8" fill="#6e7681">samples:</text>
  <text x="385" y="296" font-size="8" fill="#e3b341">N = 1000</text>
  <text x="322" y="310" font-size="8" fill="#6e7681">method:</text>
  <text x="370" y="310" font-size="8" fill="#e3b341">mean(raw)</text>

  <line x1="322" y1="318" x2="438" y2="318" stroke="#21262d" stroke-width="1" stroke-dasharray="3,2"/>

  <!-- Offset formulas -->
  <text x="322" y="333" font-size="8" fill="#58a6ff">off_ax = mean(ax)</text>
  <text x="322" y="347" font-size="8" fill="#58a6ff">off_ay = mean(ay)</text>
  <rect x="318" y="352" width="124" height="18" rx="2" fill="#1a150a" stroke="#e3b34140" stroke-width="1"/>
  <text x="322" y="364" font-size="8" fill="#e3b341">off_az = mean(az) − 4096</text>

  <line x1="322" y1="374" x2="438" y2="374" stroke="#21262d" stroke-width="1" stroke-dasharray="3,2"/>

  <text x="322" y="388" font-size="8" fill="#bc8cff">off_gx = mean(gx)</text>
  <text x="322" y="402" font-size="8" fill="#bc8cff">off_gy = mean(gy)</text>
  <text x="322" y="416" font-size="8" fill="#bc8cff">off_gz = mean(gz)</text>

  <!-- Note: Z special -->
  <text x="380" y="438" text-anchor="middle" font-size="7" fill="#6e7681">Az ≠ 0 when flat (1g = 4096 LSB)</text>

  <!-- ═══════════════════════════════════════════════ -->
  <!-- Arrow: Calibrate → Scale -->
  <!-- ═══════════════════════════════════════════════ -->
  <line x1="450" y1="340" x2="478" y2="340" stroke="#e3b341" stroke-width="1.5" marker-end="url(#arrowYellow)"/>

  <!-- ═══════════════════════════════════════════════ -->
  <!-- BLOCK 3: Scale / Normalize -->
  <!-- ═══════════════════════════════════════════════ -->
  <rect x="480" y="240" width="145" height="200" rx="6" fill="#161b22" stroke="#58a6ff" stroke-width="1.5"/>
  <rect x="480" y="240" width="145" height="26" rx="6" fill="#0f1e3a"/>
  <rect x="480" y="260" width="145" height="6" rx="0" fill="#0f1e3a"/>
  <text x="552" y="258" text-anchor="middle" font-size="10" font-weight="bold" fill="#58a6ff">③ SCALE</text>

  <text x="552" y="282" text-anchor="middle" font-size="8" fill="#8b949e">raw − offset → physical unit</text>
  <line x1="492" y1="290" x2="613" y2="290" stroke="#21262d" stroke-width="1"/>

  <!-- Accel formulas -->
  <text x="492" y="306" font-size="8" fill="#6e7681">ACCEL  ÷ 4096.0</text>
  <text x="492" y="320" font-size="8" fill="#58a6ff">Ax = (ax_raw − off) / 4096</text>
  <text x="492" y="334" font-size="8" fill="#58a6ff">Ay = (ay_raw − off) / 4096</text>
  <text x="492" y="348" font-size="8" fill="#58a6ff">Az = (az_raw − off) / 4096</text>
  <text x="608" y="320" text-anchor="end" font-size="8" fill="#6e7681">→ g</text>
  <text x="608" y="334" text-anchor="end" font-size="8" fill="#6e7681">→ g</text>
  <text x="608" y="348" text-anchor="end" font-size="8" fill="#6e7681">→ g</text>

  <line x1="492" y1="356" x2="613" y2="356" stroke="#21262d" stroke-width="1" stroke-dasharray="3,2"/>

  <!-- Gyro formulas -->
  <text x="492" y="370" font-size="8" fill="#6e7681">GYRO   ÷ 65.5</text>
  <text x="492" y="384" font-size="8" fill="#bc8cff">Gx = (gx_raw − off) / 65.5</text>
  <text x="492" y="398" font-size="8" fill="#bc8cff">Gy = (gy_raw − off) / 65.5</text>
  <text x="492" y="412" font-size="8" fill="#bc8cff">Gz = (gz_raw − off) / 65.5</text>
  <text x="608" y="384" text-anchor="end" font-size="8" fill="#6e7681">→°/s</text>
  <text x="608" y="398" text-anchor="end" font-size="8" fill="#6e7681">→°/s</text>
  <text x="608" y="412" text-anchor="end" font-size="8" fill="#6e7681">→°/s</text>

  <!-- dt badge -->
  <rect x="490" y="420" width="125" height="14" rx="2" fill="#0d1117" stroke="#21262d" stroke-width="1"/>
  <text x="552" y="430" text-anchor="middle" font-size="7" fill="#6e7681">dt = (now − last_time) / 1e6  [s]</text>

  <!-- ═══════════════════════════════════════════════ -->
  <!-- Arrow: Scale → atan2 -->
  <!-- ═══════════════════════════════════════════════ -->
  <line x1="625" y1="340" x2="653" y2="340" stroke="#58a6ff" stroke-width="1.5" marker-end="url(#arrowBlue)"/>

  <!-- ═══════════════════════════════════════════════ -->
  <!-- BLOCK 4: atan2 Accel Angle -->
  <!-- ═══════════════════════════════════════════════ -->
  <rect x="655" y="250" width="145" height="155" rx="6" fill="#161b22" stroke="#58a6ff" stroke-width="1.5" stroke-dasharray="6,3"/>
  <rect x="655" y="250" width="145" height="26" rx="6" fill="#0f1e3a"/>
  <rect x="655" y="270" width="145" height="6" rx="0" fill="#0f1e3a"/>
  <text x="727" y="268" text-anchor="middle" font-size="10" font-weight="bold" fill="#58a6ff">④ ACCEL ANGLE</text>

  <text x="727" y="291" text-anchor="middle" font-size="8" fill="#8b949e">atan2 trigonometry</text>
  <line x1="667" y1="299" x2="788" y2="299" stroke="#21262d" stroke-width="1"/>

  <text x="667" y="315" font-size="7.5" fill="#58a6ff">roll_a  = atan2(Ay, Az)·57.3°</text>
  <text x="667" y="331" font-size="7.5" fill="#58a6ff">pitch_a = atan2(−Ax,</text>
  <text x="677" y="344" font-size="7.5" fill="#58a6ff">  √(Ay²+Az²))·57.3°</text>

  <line x1="667" y1="352" x2="788" y2="352" stroke="#21262d" stroke-width="1" stroke-dasharray="3,2"/>

  <!-- Warning: noisy -->
  <rect x="663" y="357" width="129" height="38" rx="3" fill="#2a1a0a" stroke="#e3b34150" stroke-width="1"/>
  <text x="727" y="370" text-anchor="middle" font-size="7.5" fill="#e3b341">⚠ noisy under vibration</text>
  <text x="727" y="383" text-anchor="middle" font-size="7.5" fill="#6e7681">no drift · short-term only</text>

  <!-- ═══════════════════════════════════════════════ -->
  <!-- Arrow: atan2 → CF -->
  <!-- Accel path -->
  <line x1="800" y1="330" x2="828" y2="330" stroke="#58a6ff" stroke-width="1.5" marker-end="url(#arrowBlue)"/>
  <!-- Gyro path (comes from Scale block, curves down) -->
  <path d="M625 310 Q640 310 648 290 Q655 140 828 140 L828 290" stroke="#bc8cff" stroke-width="1.5" fill="none" marker-end="url(#arrowPurple)" stroke-dasharray="5,3"/>
  <text x="720" y="133" text-anchor="middle" font-size="8" fill="#bc8cff">Gx·dt  (gyro integration)</text>

  <!-- ═══════════════════════════════════════════════ -->
  <!-- BLOCK 5: Complementary Filter -->
  <!-- ═══════════════════════════════════════════════ -->
  <rect x="830" y="255" width="210" height="215" rx="6" fill="#161b22" stroke="#bc8cff" stroke-width="2"/>
  <rect x="830" y="255" width="210" height="26" rx="6" fill="#1e0f38"/>
  <rect x="830" y="275" width="210" height="6" rx="0" fill="#1e0f38"/>
  <text x="935" y="273" text-anchor="middle" font-size="10" font-weight="bold" fill="#bc8cff" filter="url(#softglow)">⑤ COMPLEMENTARY FILTER</text>

  <!-- Alpha annotation -->
  <rect x="838" y="290" width="194" height="38" rx="3" fill="#130a2a" stroke="#bc8cff30" stroke-width="1"/>
  <text x="935" y="304" text-anchor="middle" font-size="9" fill="#bc8cff">α = 0.98   (1−α) = 0.02</text>
  <text x="935" y="318" text-anchor="middle" font-size="7.5" fill="#6e7681">98% gyro  +  2% accel</text>

  <line x1="840" y1="332" x2="1028" y2="332" stroke="#21262d" stroke-width="1"/>

  <!-- Roll formula box -->
  <rect x="838" y="338" width="194" height="28" rx="3" fill="#0d1117" stroke="#bc8cff40" stroke-width="1"/>
  <text x="935" y="349" text-anchor="middle" font-size="8" fill="#bc8cff">Roll = α·(Roll + Gx·dt)</text>
  <text x="935" y="361" text-anchor="middle" font-size="8" fill="#bc8cff">     + (1−α)·roll_accel</text>

  <!-- Pitch formula box -->
  <rect x="838" y="372" width="194" height="28" rx="3" fill="#0d1117" stroke="#bc8cff40" stroke-width="1"/>
  <text x="935" y="383" text-anchor="middle" font-size="8" fill="#bc8cff">Pitch = α·(Pitch + Gy·dt)</text>
  <text x="935" y="395" text-anchor="middle" font-size="8" fill="#bc8cff">      + (1−α)·pitch_accel</text>

  <!-- Yaw formula box -->
  <rect x="838" y="406" width="194" height="22" rx="3" fill="#0d1117" stroke="#bc8cff40" stroke-width="1"/>
  <text x="935" y="421" text-anchor="middle" font-size="8" fill="#bc8cff">Yaw = Yaw + Gz·dt  (gyro only)</text>

  <!-- Yaw note -->
  <text x="935" y="445" text-anchor="middle" font-size="7" fill="#6e7681">⚠ Yaw drifts — no absolute ref</text>
  <text x="935" y="457" text-anchor="middle" font-size="7" fill="#6e7681">magnetometer needed to correct</text>

  <!-- ═══════════════════════════════════════════════ -->
  <!-- Arrow: CF → Output -->
  <!-- ═══════════════════════════════════════════════ -->
  <line x1="935" y1="470" x2="935" y2="508" stroke="#bc8cff" stroke-width="2" marker-end="url(#arrowPurple)"/>

  <!-- ═══════════════════════════════════════════════ -->
  <!-- BLOCK 6: Output -->
  <!-- ═══════════════════════════════════════════════ -->
  <rect x="830" y="510" width="210" height="90" rx="6" fill="#161b22" stroke="#e3b341" stroke-width="2"/>
  <rect x="830" y="510" width="210" height="26" rx="6" fill="#28200a"/>
  <rect x="830" y="530" width="210" height="6" rx="0" fill="#28200a"/>
  <text x="935" y="528" text-anchor="middle" font-size="10" font-weight="bold" fill="#e3b341">⑥ FUSED ANGLES OUTPUT</text>

  <g font-size="11" font-weight="bold">
    <text x="860" y="558" fill="#39d353" filter="url(#softglow)">Roll</text>
    <text x="860" y="576" fill="#39d353" filter="url(#softglow)">Pitch</text>
    <text x="860" y="594" fill="#6e7681">Yaw*</text>
    <text x="910" y="558" fill="#6e7681" font-size="9" font-weight="normal">lateral tilt  (deg)</text>
    <text x="910" y="576" fill="#6e7681" font-size="9" font-weight="normal">fore/aft tilt  (deg)</text>
    <text x="910" y="594" fill="#6e7681" font-size="9" font-weight="normal">heading  (drift)</text>
  </g>

  <!-- ═══════════════════════════════════════════════ -->
  <!-- LEGEND bottom-left -->
  <!-- ═══════════════════════════════════════════════ -->
  <rect x="20" y="648" width="500" height="58" rx="4" fill="#161b22" stroke="#30363d" stroke-width="1"/>
  <text x="34" y="665" font-size="8" fill="#8b949e" letter-spacing="1">LEGEND</text>
  <line x1="34" y1="670" x2="34" y2="685" stroke="#39d353" stroke-width="2"/>
  <text x="44" y="682" font-size="8" fill="#6e7681">Raw I2C data</text>
  <line x1="130" y1="670" x2="130" y2="685" stroke="#e3b341" stroke-width="2"/>
  <text x="140" y="682" font-size="8" fill="#6e7681">Calibrated</text>
  <line x1="220" y1="670" x2="220" y2="685" stroke="#58a6ff" stroke-width="2"/>
  <text x="230" y="682" font-size="8" fill="#6e7681">Scaled physical</text>
  <line x1="330" y1="670" x2="330" y2="685" stroke="#bc8cff" stroke-width="2"/>
  <text x="340" y="682" font-size="8" fill="#6e7681">Fused angles</text>
  <!-- dashed line legend -->
  <line x1="34" y1="697" x2="70" y2="697" stroke="#bc8cff" stroke-width="1.5" stroke-dasharray="5,3"/>
  <text x="78" y="700" font-size="8" fill="#6e7681">Gyro integration path</text>
  <line x1="210" y1="697" x2="246" y2="697" stroke="#58a6ff" stroke-width="1.5" stroke-dasharray="6,3"/>
  <text x="254" y="700" font-size="8" fill="#6e7681">Accel-only angle (noisy)</text>

  <!-- ═══════════════════════════════════════════════ -->
  <!-- Note bottom-right -->
  <!-- ═══════════════════════════════════════════════ -->
  <rect x="540" y="648" width="540" height="58" rx="4" fill="#161b22" stroke="#30363d" stroke-width="1"/>
  <text x="554" y="665" font-size="8" fill="#8b949e" letter-spacing="1">SAMPLE RATE</text>
  <text x="554" y="681" font-size="8" fill="#6e7681">STM32 bare-metal  :  ~200 Hz  (TIM4 μs counter · 1000-sample calib)</text>
  <text x="554" y="697" font-size="8" fill="#6e7681">ESP32-S3 FreeRTOS :  200 Hz  (DRN_MPU6050_Run_Task every 5 ms)</text>

  <!-- Flow step numbers on top -->
  <text x="215" y="90" text-anchor="middle" font-size="8" fill="#39d353" letter-spacing="1">① READ</text>
  <text x="380" y="90" text-anchor="middle" font-size="8" fill="#e3b341" letter-spacing="1">② CALIBRATE</text>
  <text x="552" y="90" text-anchor="middle" font-size="8" fill="#58a6ff" letter-spacing="1">③ SCALE</text>
  <text x="727" y="90" text-anchor="middle" font-size="8" fill="#58a6ff" letter-spacing="1">④ ACCEL ANGLE</text>
  <text x="935" y="90" text-anchor="middle" font-size="8" fill="#bc8cff" letter-spacing="1">⑤ FILTER</text>
  <!-- top step line -->
  <line x1="150" y1="97" x2="290" y2="97" stroke="#39d353" stroke-width="0.5" opacity="0.4"/>
  <line x1="310" y1="97" x2="450" y2="97" stroke="#e3b341" stroke-width="0.5" opacity="0.4"/>
  <line x1="480" y1="97" x2="625" y2="97" stroke="#58a6ff" stroke-width="0.5" opacity="0.4"/>
  <line x1="655" y1="97" x2="800" y2="97" stroke="#58a6ff" stroke-width="0.5" opacity="0.4"/>
  <line x1="830" y1="97" x2="1040" y2="97" stroke="#bc8cff" stroke-width="0.5" opacity="0.4"/>

  <!-- Watermark -->
  <text x="1080" y="714" text-anchor="end" font-size="7" fill="#30363d">Project Windify · drn_mpu6050</text>
</svg>
