<svg xmlns="http://www.w3.org/2000/svg" viewBox="0 0 1100 680" width="1100" height="680" font-family="'Courier New', monospace">
  <defs>
    <linearGradient id="bg2" x1="0%" y1="0%" x2="100%" y2="100%">
      <stop offset="0%" style="stop-color:#0d1117"/>
      <stop offset="100%" style="stop-color:#161b22"/>
    </linearGradient>
    <linearGradient id="core1Grad" x1="0%" y1="0%" x2="100%" y2="100%">
      <stop offset="0%" style="stop-color:#0f2318"/>
      <stop offset="100%" style="stop-color:#0d1a12"/>
    </linearGradient>
    <linearGradient id="core2Grad" x1="0%" y1="0%" x2="100%" y2="100%">
      <stop offset="0%" style="stop-color:#0f1823"/>
      <stop offset="100%" style="stop-color:#0d1420"/>
    </linearGradient>
    <filter id="glow2">
      <feGaussianBlur stdDeviation="2" result="coloredBlur"/>
      <feMerge><feMergeNode in="coloredBlur"/><feMergeNode in="SourceGraphic"/></feMerge>
    </filter>
    <marker id="arr1" markerWidth="8" markerHeight="8" refX="6" refY="3" orient="auto">
      <path d="M0,0 L0,6 L8,3 z" fill="#39d353"/>
    </marker>
    <marker id="arr2" markerWidth="8" markerHeight="8" refX="6" refY="3" orient="auto">
      <path d="M0,0 L0,6 L8,3 z" fill="#58a6ff"/>
    </marker>
    <marker id="arr3" markerWidth="8" markerHeight="8" refX="6" refY="3" orient="auto">
      <path d="M0,0 L0,6 L8,3 z" fill="#bc8cff"/>
    </marker>
    <marker id="arr4" markerWidth="8" markerHeight="8" refX="6" refY="3" orient="auto">
      <path d="M0,0 L0,6 L8,3 z" fill="#e3b341"/>
    </marker>
    <marker id="arr5" markerWidth="8" markerHeight="8" refX="6" refY="3" orient="auto">
      <path d="M0,0 L0,6 L8,3 z" fill="#f78166"/>
    </marker>
    <marker id="arr6" markerWidth="8" markerHeight="8" refX="6" refY="3" orient="auto">
      <path d="M0,0 L0,6 L8,3 z" fill="#ffa657"/>
    </marker>
  </defs>

  <!-- Background -->
  <rect width="1100" height="680" fill="url(#bg2)"/>

  <!-- Title -->
  <text x="550" y="36" text-anchor="middle" font-size="18" font-weight="bold" fill="#e6edf3" letter-spacing="3">QUADCOPTER — SYSTEM ARCHITECTURE OVERVIEW</text>
  <text x="550" y="54" text-anchor="middle" font-size="11" fill="#8b949e" letter-spacing="2">SENSOR FUSION · FLIGHT CONTROL · COMMUNICATION</text>
  <line x1="60" y1="64" x2="1040" y2="64" stroke="#30363d" stroke-width="1"/>

  <!-- ══════════════════════════════════════════════════════ -->
  <!-- COLUMN 1: INPUT SENSORS -->
  <!-- ══════════════════════════════════════════════════════ -->
  <text x="100" y="86" text-anchor="middle" font-size="8" fill="#6e7681" letter-spacing="2">INPUT SENSORS</text>

  <!-- MPU6050 -->
  <rect x="28" y="95" width="144" height="100" rx="6" fill="#1c2128" stroke="#39d353" stroke-width="1.5"/>
  <rect x="28" y="95" width="144" height="22" rx="6" fill="#1a3a2a"/>
  <rect x="28" y="109" width="144" height="8" rx="0" fill="#1a3a2a"/>
  <text x="100" y="111" text-anchor="middle" font-size="10" font-weight="bold" fill="#39d353">MPU6050 / MPU6500</text>
  <text x="100" y="128" text-anchor="middle" font-size="8" fill="#8b949e">6-axis IMU</text>
  <text x="40" y="143" font-size="8" fill="#58a6ff">Accel:  ±8g  (4096 LSB/g)</text>
  <text x="40" y="156" font-size="8" fill="#bc8cff">Gyro:   ±500°/s  (65.5 LSB)</text>
  <text x="40" y="169" font-size="8" fill="#6e7681">DLPF:   0x03 → 41 Hz cutoff</text>
  <text x="40" y="182" font-size="8" fill="#6e7681">Bus:    I2C 400 kHz  (0x68)</text>

  <!-- VL53L1X ToF -->
  <rect x="28" y="210" width="144" height="70" rx="6" fill="#1c2128" stroke="#6e7681" stroke-width="1" stroke-dasharray="5,3"/>
  <rect x="28" y="210" width="144" height="22" rx="6" fill="#21262d"/>
  <rect x="28" y="224" width="144" height="8" rx="0" fill="#21262d"/>
  <text x="100" y="226" text-anchor="middle" font-size="10" font-weight="bold" fill="#6e7681">VL53L1X  (ToF)</text>
  <text x="100" y="246" text-anchor="middle" font-size="8" fill="#6e7681">Altitude hold sensor</text>
  <text x="100" y="260" text-anchor="middle" font-size="8" fill="#6e7681">I2C — future integration</text>
  <text x="100" y="274" text-anchor="middle" font-size="7" fill="#30363d">[ planned ]</text>

  <!-- PMW3901 Optical Flow -->
  <rect x="28" y="295" width="144" height="70" rx="6" fill="#1c2128" stroke="#6e7681" stroke-width="1" stroke-dasharray="5,3"/>
  <rect x="28" y="295" width="144" height="22" rx="6" fill="#21262d"/>
  <rect x="28" y="309" width="144" height="8" rx="0" fill="#21262d"/>
  <text x="100" y="311" text-anchor="middle" font-size="10" font-weight="bold" fill="#6e7681">PMW3901  (Opt.Flow)</text>
  <text x="100" y="331" text-anchor="middle" font-size="8" fill="#6e7681">Position hold sensor</text>
  <text x="100" y="345" text-anchor="middle" font-size="8" fill="#6e7681">SPI — future integration</text>
  <text x="100" y="359" text-anchor="middle" font-size="7" fill="#30363d">[ planned ]</text>

  <!-- Arrow: MPU → Core1 -->
  <line x1="172" y1="145" x2="222" y2="145" stroke="#39d353" stroke-width="1.5" marker-end="url(#arr1)"/>
  <text x="197" y="139" text-anchor="middle" font-size="7" fill="#39d353">I2C</text>

  <!-- Arrow: VL53 → Core1 (dashed) -->
  <line x1="172" y1="248" x2="222" y2="248" stroke="#6e7681" stroke-width="1" stroke-dasharray="4,3" marker-end="url(#arr2)"/>

  <!-- Arrow: PMW → Core1 (dashed) -->
  <line x1="172" y1="333" x2="222" y2="333" stroke="#6e7681" stroke-width="1" stroke-dasharray="4,3" marker-end="url(#arr2)"/>

  <!-- ══════════════════════════════════════════════════════ -->
  <!-- CORE 1 BLOCK (Flight Control & Sensor Processing) -->
  <!-- ══════════════════════════════════════════════════════ -->
  <text x="510" y="86" text-anchor="middle" font-size="8" fill="#39d353" letter-spacing="2">CORE 1 — FLIGHT CONTROL &amp; SENSOR PROCESSING</text>

  <rect x="225" y="95" width="570" height="490" rx="8" fill="url(#core1Grad)" stroke="#39d353" stroke-width="2"/>

  <!-- Core1 label badge -->
  <rect x="340" y="103" width="280" height="22" rx="4" fill="#1a3a2a" stroke="#39d353" stroke-width="1"/>
  <text x="480" y="119" text-anchor="middle" font-size="10" font-weight="bold" fill="#39d353" letter-spacing="1">MCU · Core 1  (240 MHz)</text>

  <!-- ── Sub-block: Sensor Fusion ── -->
  <rect x="240" y="135" width="270" height="300" rx="6" fill="#161b22" stroke="#bc8cff" stroke-width="1.5"/>
  <rect x="240" y="135" width="270" height="22" rx="6" fill="#1e0f38"/>
  <rect x="240" y="149" width="270" height="8" rx="0" fill="#1e0f38"/>
  <text x="375" y="151" text-anchor="middle" font-size="10" font-weight="bold" fill="#bc8cff">SENSOR FUSION</text>

  <!-- Pipeline mini-blocks inside fusion -->
  <!-- Step 1 -->
  <rect x="252" y="168" width="246" height="34" rx="4" fill="#0d1117" stroke="#39d353" stroke-width="1"/>
  <text x="375" y="181" text-anchor="middle" font-size="9" fill="#39d353">① I2C Burst Read</text>
  <text x="375" y="194" text-anchor="middle" font-size="7.5" fill="#6e7681">14 bytes · reg 0x3B  →  int16_t RAW</text>

  <line x1="375" y1="202" x2="375" y2="212" stroke="#39d353" stroke-width="1" marker-end="url(#arr1)"/>

  <!-- Step 2 -->
  <rect x="252" y="213" width="246" height="34" rx="4" fill="#0d1117" stroke="#e3b341" stroke-width="1"/>
  <text x="375" y="226" text-anchor="middle" font-size="9" fill="#e3b341">② Calibration  (startup)</text>
  <text x="375" y="239" text-anchor="middle" font-size="7.5" fill="#6e7681">1000 samples · mean → offset[]</text>

  <line x1="375" y1="247" x2="375" y2="257" stroke="#e3b341" stroke-width="1" marker-end="url(#arr4)"/>

  <!-- Step 3 -->
  <rect x="252" y="258" width="246" height="34" rx="4" fill="#0d1117" stroke="#58a6ff" stroke-width="1"/>
  <text x="375" y="271" text-anchor="middle" font-size="9" fill="#58a6ff">③ Scale  (raw − offset)</text>
  <text x="375" y="284" text-anchor="middle" font-size="7.5" fill="#6e7681">÷4096 → g  ·  ÷65.5 → °/s  · Δt</text>

  <line x1="375" y1="292" x2="375" y2="302" stroke="#58a6ff" stroke-width="1" marker-end="url(#arr2)"/>

  <!-- Step 4 -->
  <rect x="252" y="303" width="246" height="34" rx="4" fill="#0d1117" stroke="#58a6ff" stroke-width="1" stroke-dasharray="5,3"/>
  <text x="375" y="316" text-anchor="middle" font-size="9" fill="#58a6ff">④ Accel Angle  (atan2)</text>
  <text x="375" y="329" text-anchor="middle" font-size="7.5" fill="#6e7681">roll_a · pitch_a  (noisy ref)</text>

  <line x1="375" y1="337" x2="375" y2="347" stroke="#bc8cff" stroke-width="1" marker-end="url(#arr3)"/>

  <!-- Step 5 -->
  <rect x="252" y="348" width="246" height="50" rx="4" fill="#130a2a" stroke="#bc8cff" stroke-width="1.5"/>
  <text x="375" y="361" text-anchor="middle" font-size="9" font-weight="bold" fill="#bc8cff" filter="url(#glow2)">⑤ Complementary Filter</text>
  <text x="375" y="374" text-anchor="middle" font-size="8" fill="#bc8cff">0.98·(angle + Gx·dt) + 0.02·roll_a</text>
  <text x="375" y="387" text-anchor="middle" font-size="7.5" fill="#6e7681">α=0.98  →  Roll · Pitch · Yaw</text>

  <line x1="375" y1="398" x2="375" y2="408" stroke="#e3b341" stroke-width="1.5" marker-end="url(#arr4)"/>

  <!-- Output: fused angles -->
  <rect x="252" y="409" width="246" height="18" rx="3" fill="#28200a" stroke="#e3b341" stroke-width="1"/>
  <text x="375" y="422" text-anchor="middle" font-size="9" font-weight="bold" fill="#e3b341">Roll°  ·  Pitch°  ·  Yaw°</text>

  <!-- ── Sub-block: Motor Control ── -->
  <rect x="530" y="135" width="248" height="200" rx="6" fill="#161b22" stroke="#f78166" stroke-width="1.5"/>
  <rect x="530" y="135" width="248" height="22" rx="6" fill="#2a1210"/>
  <rect x="530" y="149" width="248" height="8" rx="0" fill="#2a1210"/>
  <text x="654" y="151" text-anchor="middle" font-size="10" font-weight="bold" fill="#f78166">MOTOR CONTROL</text>

  <text x="654" y="173" text-anchor="middle" font-size="8" fill="#8b949e">Fused angles → PWM signals</text>
  <line x1="542" y1="180" x2="766" y2="180" stroke="#21262d" stroke-width="1"/>

  <!-- PID placeholder -->
  <rect x="542" y="187" width="224" height="34" rx="3" fill="#0d1117" stroke="#f78166" stroke-width="1" stroke-dasharray="5,3"/>
  <text x="654" y="200" text-anchor="middle" font-size="9" fill="#f78166">PID Controller</text>
  <text x="654" y="213" text-anchor="middle" font-size="7.5" fill="#6e7681">Roll/Pitch/Yaw error → correction</text>

  <line x1="654" y1="221" x2="654" y2="231" stroke="#f78166" stroke-width="1" marker-end="url(#arr5)"/>

  <!-- Motor mixing -->
  <rect x="542" y="232" width="224" height="34" rx="3" fill="#0d1117" stroke="#ffa657" stroke-width="1"/>
  <text x="654" y="245" text-anchor="middle" font-size="9" fill="#ffa657">Motor Mixing</text>
  <text x="654" y="258" text-anchor="middle" font-size="7.5" fill="#6e7681">M1 · M2 · M3 · M4  throttle</text>

  <line x1="654" y1="266" x2="654" y2="276" stroke="#ffa657" stroke-width="1" marker-end="url(#arr6)"/>

  <!-- ESC Driver -->
  <rect x="542" y="277" width="224" height="22" rx="3" fill="#0d1117" stroke="#ffa657" stroke-width="1"/>
  <text x="654" y="293" text-anchor="middle" font-size="9" fill="#ffa657">ESC Driver  (PWM 500Hz / 16kHz)</text>

  <!-- ── Sub-block: PWM Timer ── -->
  <rect x="530" y="350" width="248" height="90" rx="6" fill="#161b22" stroke="#6e7681" stroke-width="1"/>
  <rect x="530" y="350" width="248" height="22" rx="6" fill="#21262d"/>
  <rect x="530" y="364" width="248" height="8" rx="0" fill="#21262d"/>
  <text x="654" y="366" text-anchor="middle" font-size="10" font-weight="bold" fill="#8b949e">HAL · TIMER PWM</text>

  <text x="654" y="388" text-anchor="middle" font-size="8" fill="#6e7681">STM32:  TIM3  500 Hz / 4 kHz</text>
  <text x="654" y="402" text-anchor="middle" font-size="8" fill="#6e7681">ESP32:  LEDC  16 kHz  (4 ch)</text>
  <text x="654" y="416" text-anchor="middle" font-size="8" fill="#6e7681">drn_motor_pwm · drn_timer_pwm</text>

  <!-- ── Sub-block: drn_button ── -->
  <rect x="530" y="455" width="120" height="60" rx="6" fill="#161b22" stroke="#6e7681" stroke-width="1"/>
  <text x="590" y="476" text-anchor="middle" font-size="9" fill="#8b949e">drn_button</text>
  <text x="590" y="491" text-anchor="middle" font-size="7.5" fill="#6e7681">Arm / Disarm</text>
  <text x="590" y="505" text-anchor="middle" font-size="7.5" fill="#6e7681">calib trigger</text>

  <!-- ── Sub-block: drn_time ── -->
  <rect x="660" y="455" width="118" height="60" rx="6" fill="#161b22" stroke="#6e7681" stroke-width="1"/>
  <text x="719" y="476" text-anchor="middle" font-size="9" fill="#8b949e">drn_time</text>
  <text x="719" y="491" text-anchor="middle" font-size="7.5" fill="#6e7681">SysTick 1ms</text>
  <text x="719" y="505" text-anchor="middle" font-size="7.5" fill="#6e7681">FreeRTOS Tick</text>

  <!-- Arrow: Fusion output → Motor Control -->
  <line x1="498" y1="418" x2="528" y2="300" stroke="#e3b341" stroke-width="1.5" marker-end="url(#arr4)"/>
  <text x="514" y="365" text-anchor="middle" font-size="7" fill="#e3b341" transform="rotate(-50, 514, 365)">Roll/Pitch/Yaw</text>

  <!-- Arrow: ESC → outside (motors) -->
  <line x1="654" y1="299" x2="654" y2="348" stroke="#ffa657" stroke-width="1.5" marker-end="url(#arr6)"/>

  <!-- ══════════════════════════════════════════════════════ -->
  <!-- CORE 2 BLOCK -->
  <!-- ══════════════════════════════════════════════════════ -->
  <text x="895" y="86" text-anchor="middle" font-size="8" fill="#58a6ff" letter-spacing="2">CORE 2 — COMMUNICATION</text>

  <rect x="820" y="95" width="248" height="340" rx="8" fill="url(#core2Grad)" stroke="#58a6ff" stroke-width="2"/>

  <!-- Core2 label badge -->
  <rect x="840" y="103" width="208" height="22" rx="4" fill="#0f1e3a" stroke="#58a6ff" stroke-width="1"/>
  <text x="944" y="119" text-anchor="middle" font-size="10" font-weight="bold" fill="#58a6ff" letter-spacing="1">MCU · Core 2  (240 MHz)</text>

  <!-- RC Receiver block -->
  <rect x="833" y="136" width="222" height="70" rx="6" fill="#161b22" stroke="#58a6ff" stroke-width="1"/>
  <rect x="833" y="136" width="222" height="22" rx="6" fill="#0f1e3a"/>
  <rect x="833" y="150" width="222" height="8" rx="0" fill="#0f1e3a"/>
  <text x="944" y="152" text-anchor="middle" font-size="10" font-weight="bold" fill="#58a6ff">RC Signal Reception</text>
  <text x="944" y="173" text-anchor="middle" font-size="8" fill="#6e7681">TBS Tango 2  →  CRSF / PPM</text>
  <text x="944" y="187" text-anchor="middle" font-size="8" fill="#6e7681">Throttle · Roll · Pitch · Yaw</text>
  <text x="944" y="200" text-anchor="middle" font-size="7" fill="#30363d">[ planned ]</text>

  <!-- Data Logging block -->
  <rect x="833" y="220" width="222" height="90" rx="6" fill="#161b22" stroke="#58a6ff" stroke-width="1"/>
  <rect x="833" y="220" width="222" height="22" rx="6" fill="#0f1e3a"/>
  <rect x="833" y="234" width="222" height="8" rx="0" fill="#0f1e3a"/>
  <text x="944" y="236" text-anchor="middle" font-size="10" font-weight="bold" fill="#58a6ff">UART Data Logging</text>
  <text x="944" y="255" text-anchor="middle" font-size="8" fill="#6e7681">115200 baud  (PA9 TX)</text>
  <text x="944" y="268" text-anchor="middle" font-size="8" fill="#6e7681">printf → Hercules / serial</text>
  <text x="944" y="281" text-anchor="middle" font-size="8" fill="#6e7681">Roll · Pitch · Yaw  live stream</text>
  <text x="944" y="296" text-anchor="middle" font-size="7.5" fill="#6e7681">bytes_per_second  diagnostics</text>

  <!-- SPI/UART inter-core -->
  <rect x="833" y="325" width="222" height="50" rx="6" fill="#161b22" stroke="#30363d" stroke-width="1"/>
  <text x="944" y="345" text-anchor="middle" font-size="9" fill="#8b949e">Inter-Core Bus</text>
  <text x="944" y="360" text-anchor="middle" font-size="8" fill="#6e7681">SPI / UART  (C1 ↔ C2)</text>
  <text x="944" y="373" text-anchor="middle" font-size="7" fill="#30363d">Flight Angle Data · Control Signals</text>

  <!-- Arrow: C1 → C2 (bidirectional) -->
  <line x1="795" y1="350" x2="818" y2="350" stroke="#8b949e" stroke-width="1.5" marker-end="url(#arr2)"/>
  <line x1="818" y1="360" x2="795" y2="360" stroke="#8b949e" stroke-width="1.5" marker-end="url(#arr1)"/>
  <text x="807" y="343" text-anchor="middle" font-size="7" fill="#6e7681">SPI/UART</text>

  <!-- ══════════════════════════════════════════════════════ -->
  <!-- MOTORS / ESC External -->
  <!-- ══════════════════════════════════════════════════════ -->
  <rect x="530" y="568" width="248" height="70" rx="6" fill="#1c2128" stroke="#ffa657" stroke-width="1.5"/>
  <rect x="530" y="568" width="248" height="22" rx="6" fill="#2a1e08"/>
  <rect x="530" y="582" width="248" height="8" rx="0" fill="#2a1e08"/>
  <text x="654" y="584" text-anchor="middle" font-size="10" font-weight="bold" fill="#ffa657">MOTORS &amp; PROPELLERS</text>
  <text x="654" y="602" text-anchor="middle" font-size="8" fill="#6e7681">4× Brushless  ·  4× ESC</text>
  <text x="654" y="617" text-anchor="middle" font-size="8" fill="#6e7681">PWM 500Hz (STM32) / 16kHz (ESP32)</text>
  <text x="654" y="631" text-anchor="middle" font-size="7" fill="#6e7681">CW: M1·M3  ·  CCW: M2·M4</text>

  <!-- Arrow: Core1 → Motors -->
  <line x1="654" y1="560" x2="654" y2="566" stroke="#ffa657" stroke-width="2" marker-end="url(#arr6)"/>

  <!-- ══════════════════════════════════════════════════════ -->
  <!-- Data Logger External -->
  <!-- ══════════════════════════════════════════════════════ -->
  <rect x="830" y="460" width="238" height="60" rx="6" fill="#1c2128" stroke="#58a6ff" stroke-width="1"/>
  <text x="949" y="480" text-anchor="middle" font-size="10" font-weight="bold" fill="#58a6ff">Data Logger (PC)</text>
  <text x="949" y="496" text-anchor="middle" font-size="8" fill="#6e7681">Hercules UART Terminal</text>
  <text x="949" y="510" text-anchor="middle" font-size="8" fill="#6e7681">Roll/Pitch/Yaw  live  @ 115200</text>

  <!-- Arrow: Core2 → Data Logger -->
  <line x1="944" y1="440" x2="944" y2="458" stroke="#58a6ff" stroke-width="1.5" marker-end="url(#arr2)"/>

  <!-- ══════════════════════════════════════════════════════ -->
  <!-- RC Controller External -->
  <!-- ══════════════════════════════════════════════════════ -->
  <rect x="830" y="540" width="238" height="50" rx="6" fill="#1c2128" stroke="#58a6ff" stroke-width="1" stroke-dasharray="5,3"/>
  <text x="949" y="561" text-anchor="middle" font-size="10" font-weight="bold" fill="#6e7681">RC Controller</text>
  <text x="949" y="578" text-anchor="middle" font-size="8" fill="#6e7681">TBS Tango 2  [ planned ]</text>

  <!-- Arrow: RC → Core2 -->
  <line x1="944" y1="538" x2="944" y2="436" stroke="#58a6ff" stroke-width="1" stroke-dasharray="4,3" marker-end="url(#arr2)"/>

  <!-- ══════════════════════════════════════════════════════ -->
  <!-- LEGEND -->
  <!-- ══════════════════════════════════════════════════════ -->
  <rect x="28" y="590" width="480" height="72" rx="4" fill="#161b22" stroke="#30363d" stroke-width="1"/>
  <text x="42" y="608" font-size="8" fill="#8b949e" letter-spacing="1">LEGEND</text>

  <rect x="42" y="614" width="10" height="10" rx="2" fill="none" stroke="#39d353" stroke-width="1.5"/>
  <text x="58" y="623" font-size="8" fill="#6e7681">IMU sensor (active)</text>

  <rect x="160" y="614" width="10" height="10" rx="2" fill="none" stroke="#6e7681" stroke-width="1" stroke-dasharray="3,2"/>
  <text x="176" y="623" font-size="8" fill="#6e7681">Sensor (planned)</text>

  <rect x="280" y="614" width="10" height="10" rx="2" fill="none" stroke="#bc8cff" stroke-width="1.5"/>
  <text x="296" y="623" font-size="8" fill="#6e7681">Sensor Fusion</text>

  <rect x="390" y="614" width="10" height="10" rx="2" fill="none" stroke="#ffa657" stroke-width="1.5"/>
  <text x="406" y="623" font-size="8" fill="#6e7681">Motor Control</text>

  <line x1="42" y1="644" x2="78" y2="644" stroke="#39d353" stroke-width="1.5"/>
  <text x="86" y="648" font-size="8" fill="#6e7681">I2C data path</text>

  <line x1="160" y1="644" x2="196" y2="644" stroke="#e3b341" stroke-width="1.5"/>
  <text x="204" y="648" font-size="8" fill="#6e7681">Fused angle</text>

  <line x1="280" y1="644" x2="316" y2="644" stroke="#ffa657" stroke-width="1.5"/>
  <text x="324" y="648" font-size="8" fill="#6e7681">PWM signal</text>

  <line x1="390" y1="644" x2="426" y2="644" stroke="#8b949e" stroke-width="1.5" stroke-dasharray="4,3"/>
  <text x="434" y="648" font-size="8" fill="#6e7681">Inter-core (planned)</text>

  <!-- Watermark -->
  <text x="1072" y="672" text-anchor="end" font-size="7" fill="#30363d">Project Windify · system-overview</text>
</svg>
